<svg width="107" height="85" viewBox="0 0 107 85" fill="none" xmlns="http://www.w3.org/2000/svg">
<path d="M29.2387 3.72908H3.67054V22.4282H29.2473L29.2387 3.72908ZM32.3441 0.556396H103.002C103.407 0.556396 103.795 0.630371 104.149 0.77832C104.511 0.92627 104.848 1.13997 105.124 1.40299L105.141 1.41943C105.417 1.68245 105.641 2.00301 105.788 2.34823C105.934 2.68522 106.021 3.05509 106.021 3.44141V22.7323C106.021 23.1186 105.943 23.4885 105.788 23.8337C105.633 24.1872 105.408 24.4995 105.132 24.7707L105.098 24.7954C104.822 25.0502 104.503 25.2557 104.149 25.3954C103.795 25.5352 103.407 25.6173 103.002 25.6173H74.5695C74.4401 25.6173 74.3452 25.5187 74.3452 25.4036V3.72908H59.9049V9.40047L70.5152 20.8994C70.8171 21.2282 70.9551 21.6392 70.9292 22.0501C70.9034 22.4529 70.7136 22.8474 70.3685 23.1433L70.3513 23.1515C70.196 23.2748 70.0321 23.3735 69.851 23.431C69.6698 23.4967 69.4714 23.5296 69.2816 23.5296H37.4077C36.9505 23.5296 36.5278 23.3488 36.2346 23.0611C35.9326 22.7734 35.7429 22.3789 35.7429 21.9433C35.7429 21.7131 35.7946 21.4994 35.8895 21.3022C35.9844 21.0967 36.1224 20.9159 36.2949 20.7679L47.2157 9.39225V3.72908H32.577V25.379C32.577 25.5023 32.4735 25.5927 32.3528 25.5927H3.36C2.95457 25.5927 2.56639 25.5187 2.21271 25.3708C1.84178 25.2228 1.51399 25.0091 1.22932 24.7461C0.953282 24.4831 0.729001 24.1625 0.573728 23.8091C0.418456 23.4803 0.34082 23.1104 0.34082 22.7241V3.43319C0.34082 3.04687 0.418456 2.677 0.573728 2.33179C0.720374 1.97835 0.944656 1.66602 1.22932 1.40299C1.23795 1.38656 1.24657 1.37834 1.2552 1.37834C1.53124 1.12354 1.85041 0.91805 2.20409 0.77832C2.56639 0.630371 2.95457 0.556396 3.36 0.556396H32.3441ZM3.36 43.5685H103.321C103.726 43.5685 104.114 43.6507 104.468 43.7904C104.839 43.9384 105.167 44.1521 105.451 44.4151L105.46 44.4233C105.736 44.6864 105.952 44.9987 106.107 45.3439C106.254 45.6809 106.34 46.0508 106.34 46.4453V81.5093C106.34 81.8956 106.254 82.2655 106.107 82.6024C105.96 82.9394 105.745 83.2436 105.486 83.5066C105.477 83.5148 105.469 83.5312 105.46 83.5395L105.451 83.5477C105.175 83.8107 104.848 84.0244 104.477 84.1641C104.123 84.3039 103.735 84.3861 103.329 84.3861H76.243C76.174 84.4025 76.105 84.4189 76.0273 84.4354C75.9411 84.4518 75.8548 84.4518 75.7686 84.4518C75.6823 84.4518 75.596 84.4436 75.5098 84.4354C75.4321 84.4272 75.3631 84.4107 75.2941 84.3861H31.3866C31.3176 84.4025 31.2486 84.4189 31.171 84.4354C31.0847 84.4518 30.9984 84.4518 30.9122 84.4518C30.8259 84.4518 30.7396 84.4436 30.6534 84.4354C30.5757 84.4272 30.5067 84.4107 30.4377 84.3861H3.36C2.95457 84.3861 2.56639 84.3121 2.21271 84.1641C1.85904 84.0244 1.53124 83.8189 1.26383 83.5641C1.24657 83.5559 1.23795 83.5477 1.22932 83.5312C0.953282 83.2682 0.729001 82.9477 0.573728 82.6024C0.418456 82.2655 0.34082 81.8956 0.34082 81.5093V46.4453C0.34082 46.059 0.418456 45.6891 0.573728 45.3439C0.729001 44.9905 0.953282 44.6781 1.22932 44.4069C1.23795 44.3987 1.24657 44.3905 1.26383 44.3822C1.53987 44.1274 1.85904 43.922 2.21271 43.7822C2.56639 43.6425 2.95457 43.5685 3.36 43.5685ZM103.01 46.7412H77.4334V81.2134H103.01V46.7412ZM74.1037 46.7412H32.577V54.4181H74.1037V46.7412ZM29.2473 46.7412H3.67054V81.2134H29.2473V46.7412ZM32.577 81.2052H74.1037V57.599H32.577V81.2052ZM56.5752 3.72908H50.5455V9.99227C50.5455 10.0087 50.5455 10.0251 50.5368 10.0498C50.5282 10.2224 50.4937 10.4032 50.4247 10.5676C50.3557 10.7485 50.2435 10.9128 50.1055 11.0608L41.1774 20.3569H65.5896L57.0238 11.0772C56.8857 10.9375 56.765 10.7649 56.6873 10.5841C56.6097 10.4032 56.5666 10.1978 56.5666 9.99227V3.72908H56.5752ZM81.4101 48.5166C81.6516 48.5166 81.8845 48.5659 82.0916 48.6481L82.1002 48.6563C82.3159 48.7385 82.5056 48.87 82.6695 49.018C82.8334 49.1741 82.9628 49.3632 83.0577 49.5687C83.144 49.7659 83.1957 49.9879 83.1957 50.218C83.1957 50.4482 83.144 50.6619 83.0577 50.8673C82.9628 51.0728 82.8334 51.2619 82.6695 51.418L82.6523 51.4263C82.4884 51.5742 82.2986 51.6975 82.083 51.7797C81.8759 51.8619 81.643 51.9112 81.4015 51.9112C81.1599 51.9112 80.927 51.8619 80.72 51.7797C80.513 51.6975 80.3232 51.5742 80.1593 51.4263L80.1334 51.4098C79.9695 51.2537 79.8401 51.0646 79.7539 50.8591L79.7452 50.8509C79.659 50.6536 79.6159 50.4399 79.6159 50.2098C79.6159 49.9796 79.6676 49.7577 79.7539 49.5605C79.8401 49.355 79.9782 49.1659 80.1421 49.0098C80.3059 48.8536 80.5044 48.7303 80.72 48.6399L80.7286 48.6317C80.9529 48.5577 81.1772 48.5166 81.4101 48.5166ZM19.3962 5.32365C19.6377 5.32365 19.8706 5.37296 20.0776 5.45516C20.2933 5.53735 20.4917 5.66886 20.6556 5.82503C20.8195 5.9812 20.9575 6.17025 21.0438 6.37573C21.13 6.573 21.1818 6.79492 21.1818 7.02506C21.1818 7.25521 21.13 7.47713 21.0438 7.6744C20.9575 7.87988 20.8281 8.06071 20.6728 8.20866L20.647 8.23332C20.4831 8.38127 20.2933 8.50456 20.0776 8.58675C19.8706 8.66894 19.6377 8.71826 19.3962 8.71826C19.1546 8.71826 18.9303 8.66894 18.7147 8.58675C18.499 8.50456 18.3006 8.37305 18.1367 8.21688L18.1195 8.20044C17.9642 8.04427 17.8348 7.86344 17.7485 7.66618C17.6623 7.46891 17.6105 7.24699 17.6105 7.01685C17.6105 6.7867 17.6623 6.56478 17.7485 6.36751L17.7572 6.35929C17.8434 6.15381 17.9815 5.97298 18.1367 5.81681C18.3006 5.66064 18.499 5.53735 18.7147 5.44694L18.7233 5.43872C18.939 5.37296 19.1632 5.32365 19.3962 5.32365ZM77.7871 3.72908H77.675V22.4282H102.7V3.72908H77.7871ZM85.7232 5.80859C85.8871 5.66064 86.0769 5.53735 86.2925 5.45516C86.4996 5.37296 86.7325 5.32365 86.974 5.32365C87.2156 5.32365 87.4485 5.37296 87.6555 5.45516L87.6641 5.46338C87.8798 5.54557 88.0696 5.67708 88.2335 5.82503C88.3973 5.9812 88.5267 6.17025 88.6216 6.37573C88.7079 6.573 88.7597 6.79492 88.7597 7.02506C88.7597 7.25521 88.7079 7.47713 88.6216 7.6744L88.613 7.68262C88.5267 7.87988 88.3974 8.06071 88.2421 8.20866L88.2162 8.23332C88.0523 8.38127 87.8625 8.50456 87.6555 8.58675C87.4485 8.66894 87.2156 8.71826 86.974 8.71826C86.7325 8.71826 86.4996 8.66894 86.2925 8.58675C86.0769 8.50456 85.8785 8.37305 85.7146 8.21688C85.5507 8.06071 85.4213 7.87166 85.3264 7.66618C85.2401 7.46891 85.1884 7.24699 85.1884 7.01685C85.1884 6.7867 85.2401 6.573 85.3264 6.36751C85.4213 6.16203 85.5507 5.97298 85.7146 5.81681L85.7232 5.80859ZM24.8824 48.5166C25.124 48.5166 25.3569 48.5659 25.5639 48.6481L25.5725 48.6563C25.7882 48.7467 25.978 48.87 26.1419 49.018L26.1505 49.0344C26.3058 49.1906 26.4352 49.3714 26.5214 49.5687L26.53 49.5769C26.6163 49.7742 26.6594 49.9879 26.6594 50.218C26.6594 50.4482 26.6077 50.6619 26.5214 50.8673C26.4265 51.0728 26.2971 51.2619 26.1332 51.418L26.116 51.4263C25.9521 51.5742 25.7623 51.6975 25.5467 51.7797C25.3396 51.8619 25.1067 51.9112 24.8652 51.9112C24.6237 51.9112 24.3907 51.8619 24.1837 51.7797C23.9681 51.6975 23.7697 51.566 23.6058 51.4098C23.4419 51.2537 23.3125 51.0646 23.2176 50.8591L23.2089 50.8509C23.1227 50.6536 23.0796 50.4399 23.0796 50.2098C23.0796 49.9796 23.1313 49.7577 23.2176 49.5605C23.3038 49.355 23.4419 49.1659 23.6058 49.0098C23.7697 48.8536 23.9681 48.7303 24.1837 48.6399C24.4166 48.5659 24.6409 48.5166 24.8824 48.5166Z" fill="white"/>
</svg>
