<svg width="43" height="43" viewBox="0 0 43 43" fill="none" xmlns="http://www.w3.org/2000/svg">
<path d="M18.1231 23.2203C18.1231 24.4397 17.1347 25.4282 15.9153 25.4282C14.696 25.4282 13.7075 24.4397 13.7075 23.2203C13.7075 22.001 14.696 21.0125 15.9153 21.0125C17.1347 21.0125 18.1231 22.001 18.1231 23.2203ZM27.0847 21.0125C25.8654 21.0125 24.8769 22.001 24.8769 23.2204C24.8769 24.4397 25.8654 25.4282 27.0847 25.4282C28.304 25.4282 29.2926 24.4397 29.2926 23.2204C29.2926 22.001 28.3041 21.0125 27.0847 21.0125ZM43 21.9897V26.1856C43 28.2922 41.2923 29.9999 39.1856 29.9999H36.4178C33.6751 37.6151 26.6715 42.2148 21.5 42.2148C16.3285 42.2148 9.32489 37.6151 6.58223 29.9998H3.81435C1.7077 29.9998 0 28.2922 0 26.1855V21.9896C0 20.54 0.808779 19.2794 1.99964 18.634C2.03962 12.6769 3.77585 8.02442 7.16758 4.80806C10.5318 1.61777 15.354 0 21.5 0C27.646 0 32.4682 1.61777 35.8324 4.80799C39.2241 8.02435 40.9602 12.6769 41.0004 18.634C42.1912 19.2794 43 20.54 43 21.9897ZM34.9269 23.2343C34.9269 22.2528 34.8767 21.3306 34.8025 20.437C33.1096 18.8882 30.0365 17.7131 26.158 17.2764C26.6672 17.849 27.1071 18.6023 27.3739 19.5938C24.9982 17.7223 20.3351 18.1677 16.8079 13.9796C16.6057 13.7457 16.4308 13.5222 16.2796 13.3179C16.2778 13.3155 16.2759 13.3136 16.2741 13.3112L16.2745 13.3113C15.647 12.4627 15.4331 11.9579 15.4211 12.5167C15.3176 17.3305 11.9057 21.0833 8.11688 21.6127C8.09292 22.1421 8.07332 22.6767 8.07332 23.2343C8.07332 25.269 8.40559 27.1234 8.97049 28.7946C11.0987 31.3618 14.6133 32.0866 17.7241 32.2789C18.3016 31.3601 19.5972 30.7187 21.1062 30.7187C23.152 30.7187 24.8104 31.8959 24.8104 33.3482C24.8104 34.8004 23.1519 35.9775 21.1062 35.9775C19.5325 35.9775 18.1915 35.2798 17.6548 34.2974C15.4807 34.171 13.0907 33.8004 10.9606 32.7945C13.9561 37.2099 18.6 39.5447 21.5 39.5447C26.0571 39.5447 34.9269 33.7878 34.9269 23.2343ZM38.7039 18.1753C38.4611 7.78005 32.5276 2.2887 21.5 2.2887C10.4724 2.2887 4.53896 7.78005 4.29614 18.1753H5.76369C6.30027 14.6716 7.43436 11.7901 9.15626 9.57446C11.9002 6.04396 16.0532 4.25377 21.5 4.25377C26.9468 4.25377 31.0998 6.04396 33.8439 9.57446C35.5656 11.79 36.6998 14.6716 37.2364 18.1753H38.7039Z" fill="white"/>
</svg>
