<svg width="100" height="70" viewBox="0 0 100 70" fill="none" xmlns="http://www.w3.org/2000/svg">
<path d="M21.0856 62.7499H78.5745C88.5988 62.7499 96.9337 54.9775 96.9337 45.1386V34.7499C96.9337 28.5622 91.7054 23.7499 85.513 23.7499C79.3206 23.7499 74.0923 28.5622 74.0923 34.7499V39.8499C74.0923 40.2344 73.7291 40.7499 73.024 40.7499H26.6363C25.9311 40.7499 25.568 40.2344 25.568 39.8499V34.7499C25.568 28.5622 20.3396 23.7499 14.1473 23.7499C7.955 23.7499 2.72656 28.5622 2.72656 34.7499V45.1386C2.72656 54.9774 11.0614 62.7499 21.0856 62.7499Z" stroke="white" stroke-width="5"/>
<mask id="path-2-outside-1_63_527" maskUnits="userSpaceOnUse" x="8.14697" y="-1" width="83" height="28" fill="black">
<rect fill="white" x="8.14697" y="-1" width="83" height="28"/>
<path d="M85.5127 26.25C85.5127 22.3004 85.5127 20.3256 85.1697 18.6835C83.762 11.9397 78.2294 6.66808 71.1521 5.32665C69.4286 5 67.3559 5 63.2109 5H36.4488C32.3037 5 30.2312 5 28.5077 5.32665C21.4302 6.66808 15.8976 11.9397 14.4898 18.6835C14.147 20.3256 14.147 22.3004 14.147 26.25"/>
</mask>
<path d="M85.1697 18.6835L80.2752 19.7051L80.2753 19.7058L85.1697 18.6835ZM71.1521 5.32665L72.0833 0.414119L72.0832 0.414111L71.1521 5.32665ZM28.5077 5.32665L29.4388 10.2392L29.4388 10.2392L28.5077 5.32665ZM14.4898 18.6835L19.3843 19.7053L19.3843 19.7052L14.4898 18.6835ZM90.5127 26.25C90.5127 22.5514 90.5393 19.9364 90.0641 17.6612L80.2753 19.7058C80.4861 20.7149 80.5127 22.0494 80.5127 26.25H90.5127ZM90.0642 17.6618C88.2193 8.82348 81.028 2.10952 72.0833 0.414119L70.221 10.2392C75.4307 11.2266 79.3047 15.056 80.2752 19.7051L90.0642 17.6618ZM72.0832 0.414111C69.7819 -0.0220643 67.127 0 63.2109 0V10C67.5848 10 69.0754 10.0221 70.221 10.2392L72.0832 0.414111ZM63.2109 0H36.4488V10H63.2109V0ZM36.4488 0C32.5326 0 29.8779 -0.0220653 27.5766 0.414116L29.4388 10.2392C30.5844 10.0221 32.0748 10 36.4488 10V0ZM27.5766 0.414113C18.6316 2.1095 11.4404 8.82346 9.59531 17.6617L19.3843 19.7052C20.3549 15.056 24.2288 11.2267 29.4388 10.2392L27.5766 0.414113ZM9.59531 17.6617C9.1204 19.9366 9.14697 22.5513 9.14697 26.25H19.147C19.147 22.0495 19.1735 20.7147 19.3843 19.7053L9.59531 17.6617Z" fill="white" mask="url(#path-2-outside-1_63_527)"/>
<path d="M52.3301 43.25V5H49.8301H47.3301V43.25H49.8301H52.3301Z" stroke="white" stroke-width="5"/>
<mask id="path-5-outside-2_63_527" maskUnits="userSpaceOnUse" x="9.14697" y="55.2499" width="82" height="15" fill="black">
<rect fill="white" x="9.14697" y="55.2499" width="82" height="15"/>
<path d="M85.5127 64.4999V60.2499ZM14.147 64.4999V60.2499Z"/>
</mask>
<path d="M80.5127 64.4999C80.5127 67.2614 82.7513 69.4999 85.5127 69.4999C88.2741 69.4999 90.5127 67.2614 90.5127 64.4999H80.5127ZM90.5127 60.2499C90.5127 57.4885 88.2741 55.2499 85.5127 55.2499C82.7513 55.2499 80.5127 57.4885 80.5127 60.2499H90.5127ZM9.14697 64.4999C9.14697 67.2614 11.3855 69.4999 14.147 69.4999C16.9084 69.4999 19.147 67.2614 19.147 64.4999H9.14697ZM19.147 60.2499C19.147 57.4885 16.9084 55.2499 14.147 55.2499C11.3855 55.2499 9.14697 57.4885 9.14697 60.2499H19.147ZM90.5127 64.4999V60.2499H80.5127V64.4999H90.5127ZM19.147 64.4999V60.2499H9.14697V64.4999H19.147Z" fill="white" mask="url(#path-5-outside-2_63_527)"/>
</svg>
