<svg width="16" height="17" viewBox="0 0 16 17" fill="none" xmlns="http://www.w3.org/2000/svg">
<path fill-rule="evenodd" clip-rule="evenodd" d="M8 13.1102C7.416 13.1102 6.852 13.0416 6.31 12.9251L3.956 14.3521L3.9875 12.013C2.183 10.9188 1 9.10955 1 7.05932C1 3.71774 4.134 1.00847 8 1.00847C11.866 1.00847 15 3.71774 15 7.05932C15 10.4014 11.866 13.1102 8 13.1102ZM8 0C3.582 0 0 3.16106 0 7.05932C0 9.28755 1.1725 11.2717 3 12.5651V16.1356L6.5045 13.9911C6.9895 14.0718 7.4885 14.1186 8 14.1186C12.418 14.1186 16 10.9581 16 7.05932C16 3.16106 12.418 0 8 0Z" fill="#B5B5B5"/>
</svg>
