<svg width="14" height="15" viewBox="0 0 14 15" fill="none" xmlns="http://www.w3.org/2000/svg">
<path d="M4.80667 4.91522L1 1.07629M13 13.178L9.19333 9.33906" stroke="#B7B7B7" stroke-width="2" stroke-linecap="round" stroke-linejoin="round"/>
<path d="M4.80667 9.33906L1 13.178M9.19333 4.91522L13 1.07629" stroke="#2CA9BC" stroke-width="2" stroke-linecap="round" stroke-linejoin="round"/>
<path d="M1.6665 9.14402H4.33317C4.50998 9.14402 4.67955 9.21485 4.80457 9.34093C4.9296 9.46702 4.99984 9.63802 4.99984 9.81633V12.5056M1.6665 5.11012H4.33317C4.50998 5.11012 4.67955 5.03928 4.80457 4.9132C4.9296 4.78712 4.99984 4.61611 4.99984 4.4378V1.74854M12.3332 9.14402H9.6665C9.48969 9.14402 9.32012 9.21485 9.1951 9.34093C9.07007 9.46702 8.99984 9.63802 8.99984 9.81633V12.5056M8.99984 1.74854V4.4378C8.99984 4.61611 9.07007 4.78712 9.1951 4.9132C9.32012 5.03928 9.48969 5.11012 9.6665 5.11012H12.3332" stroke="black" stroke-width="2" stroke-linecap="round" stroke-linejoin="round"/>
</svg>
