<svg width="25" height="25" viewBox="0 0 25 25" fill="none" xmlns="http://www.w3.org/2000/svg">
<path d="M15.877 6.05469H9.12305C7.43164 6.05469 6.05469 7.43164 6.05469 9.12305V15.877C6.05469 17.5684 7.43164 18.9453 9.12305 18.9453H15.877C17.5684 18.9453 18.9453 17.5684 18.9453 15.877V9.12305C18.9453 7.43164 17.5684 6.05469 15.877 6.05469ZM12.5 16.5137C10.2871 16.5137 8.48633 14.7129 8.48633 12.5C8.48633 10.2871 10.2871 8.48633 12.5 8.48633C14.7129 8.48633 16.5137 10.2871 16.5137 12.5C16.5137 14.7129 14.7129 16.5137 12.5 16.5137ZM16.623 9.30664C16.1055 9.30664 15.6855 8.88672 15.6855 8.36816C15.6855 7.85059 16.1055 7.43066 16.623 7.43066C17.1416 7.43066 17.5615 7.85059 17.5615 8.36816C17.5615 8.88672 17.1416 9.30664 16.623 9.30664ZM12.5 9.85352C11.041 9.85352 9.85352 11.041 9.85352 12.5C9.85352 13.959 11.041 15.1465 12.5 15.1465C13.959 15.1465 15.1465 13.959 15.1465 12.5C15.1465 11.041 13.959 9.85352 12.5 9.85352ZM12.5 0C5.59668 0 0 5.59668 0 12.5C0 19.4033 5.59668 25 12.5 25C19.4033 25 25 19.4033 25 12.5C25 5.59668 19.4033 0 12.5 0ZM20.3125 15.877C20.3125 18.3223 18.3223 20.3125 15.877 20.3125H9.12305C6.67773 20.3125 4.6875 18.3223 4.6875 15.877V9.12305C4.6875 6.67773 6.67773 4.6875 9.12305 4.6875H15.877C18.3223 4.6875 20.3125 6.67773 20.3125 9.12305V15.877Z" fill="white"/>
</svg>
