<svg width="102" height="80" viewBox="0 0 102 80" fill="none" xmlns="http://www.w3.org/2000/svg">
<path fill-rule="evenodd" clip-rule="evenodd" d="M46.0957 0.625002H56.0739C64.7533 0.624912 71.6277 0.624867 77.0079 1.31413C82.5448 2.02342 87.0267 3.51796 90.5612 6.88558C94.0952 10.2532 95.6636 14.5235 96.4084 19.7994C97.1229 24.8654 97.1314 31.3218 97.1314 39.4542C98.7556 40.7308 100.045 42.3769 100.866 44.2642C101.434 45.571 101.654 46.9187 101.756 48.3457C101.854 49.7164 101.854 51.3863 101.854 53.3861V53.6139C101.854 55.6137 101.854 57.2836 101.756 58.6543C101.654 60.0812 101.434 61.429 100.866 62.7358C99.5476 65.7679 97.019 68.1772 93.8368 69.4332C92.4654 69.9745 91.0509 70.1842 89.5533 70.2814C88.9809 70.3188 88.3594 70.3413 87.686 70.3548V76C87.686 77.8639 86.1001 79.375 84.1439 79.375C82.1878 79.375 80.6019 77.8639 80.6019 76V70.375H21.5677V76C21.5677 77.8639 19.9819 79.375 18.0257 79.375C16.0695 79.375 14.4836 77.8639 14.4836 76V70.3548C13.8102 70.3413 13.1885 70.3188 12.6164 70.2814C11.1189 70.1842 9.70427 69.9745 8.33283 69.4332C5.15052 68.1772 2.6222 65.7679 1.30404 62.7358C0.735991 61.429 0.515723 60.0812 0.413523 58.6543C0.315384 57.2836 0.315384 55.6137 0.315432 53.6139V53.3866C0.315384 51.3864 0.315384 49.7164 0.413523 48.3457C0.515723 46.9187 0.735991 45.571 1.30404 44.2642C2.12457 42.3769 3.41397 40.7308 5.03816 39.4542C5.03821 31.3218 5.04657 24.8654 5.7614 19.7994C6.5058 14.5235 8.07431 10.2532 11.6086 6.88558C15.143 3.51796 19.6246 2.02342 25.1616 1.31413C30.5418 0.624867 37.4164 0.624912 46.0957 0.625002ZM12.1241 36.7551C12.2872 36.7411 12.4513 36.7294 12.6164 36.7186C13.8054 36.6412 15.2088 36.6277 16.845 36.6255V33.016C16.8448 28.9728 16.8448 25.6014 17.2224 22.9248C17.621 20.0998 18.4979 17.5492 20.649 15.4996C22.8 13.45 25.4769 12.6144 28.4418 12.2346C31.2507 11.8748 34.7891 11.8749 39.0324 11.875H63.1372C67.3806 11.8749 70.9188 11.8748 73.7279 12.2346C76.6929 12.6144 79.3697 13.45 81.5204 15.4996C83.6716 17.5492 84.5486 20.0998 84.9472 22.9248C85.3251 25.6014 85.3246 28.9728 85.3246 33.016V36.6255C86.961 36.6277 88.3641 36.6412 89.5533 36.7186C89.7181 36.7294 89.8825 36.7411 90.0454 36.7551C90.0341 29.8482 89.9543 24.7178 89.3871 20.6988C88.7486 16.1714 87.5504 13.563 85.5518 11.6586C83.5531 9.75411 80.8153 8.61259 76.0643 8.00392C71.2107 7.38216 64.8128 7.375 55.8075 7.375H46.3621C37.3567 7.375 30.9589 7.38216 26.1056 8.00392C21.3541 8.61259 18.6165 9.75411 16.6178 11.6586C14.6191 13.563 13.4211 16.1714 12.7823 20.6988C12.2152 24.7178 12.1353 29.8482 12.1241 36.7551ZM78.2405 36.625V33.25C78.2405 28.912 78.2329 25.9979 77.9264 23.8243C77.6332 21.7477 77.1269 20.8589 76.5115 20.2725C75.8961 19.6861 74.9634 19.2036 72.7839 18.9244C70.5028 18.6322 67.4443 18.625 62.8916 18.625H54.6268V36.625H78.2405ZM47.5427 36.625V18.625H39.278C34.7252 18.625 31.667 18.6322 29.3857 18.9244C27.2063 19.2036 26.2736 19.6861 25.6582 20.2725C25.0427 20.8589 24.5363 21.7477 24.2433 23.8243C23.9366 25.9979 23.9291 28.912 23.9291 33.25V36.625H47.5427ZM13.0986 43.4528C11.9618 43.5266 11.4082 43.6594 11.0438 43.8034C9.5973 44.374 8.44807 45.4693 7.8489 46.8472C7.69796 47.1946 7.55878 47.722 7.48119 48.8052C7.40147 49.9189 7.39953 51.3571 7.39953 53.5C7.39953 55.6429 7.40147 57.0811 7.48119 58.1949C7.55878 59.278 7.69796 59.8054 7.8489 60.1528C8.44807 61.5307 9.5973 62.626 11.0438 63.197C11.4082 63.3406 11.9618 63.4734 13.0986 63.5472C14.2674 63.6232 15.7767 63.625 18.0257 63.625H84.1439C86.3929 63.625 87.9023 63.6232 89.0711 63.5472C90.2079 63.4734 90.7614 63.3406 91.126 63.197C92.5721 62.626 93.7216 61.5307 94.3209 60.1528C94.4716 59.8054 94.6109 59.278 94.6884 58.1949C94.7682 57.0811 94.7701 55.6429 94.7701 53.5C94.7701 51.3571 94.7682 49.9189 94.6884 48.8052C94.6109 47.722 94.4716 47.1946 94.3209 46.8472C93.7216 45.4693 92.5721 44.374 91.126 43.8034C90.7614 43.6594 90.2079 43.5266 89.0711 43.4528C87.9023 43.3768 86.3929 43.375 84.1439 43.375H18.0257C15.7767 43.375 14.2674 43.3768 13.0986 43.4528Z" fill="white"/>
</svg>
