<svg width="28" height="28" viewBox="0 0 28 28" fill="none" xmlns="http://www.w3.org/2000/svg">
<path d="M13.6562 0C6.12611 0 0 6.12624 0 13.6562C0 21.1863 6.12598 27.3125 13.6562 27.3125C21.1865 27.3125 27.3125 21.1863 27.3125 13.6562C27.3125 6.12624 21.1864 0 13.6562 0ZM20.6547 12.3322L12.1556 18.5399C11.8858 18.737 11.5621 18.8412 11.2326 18.8412C11.1476 18.8412 11.0623 18.8343 10.9774 18.8202C10.563 18.7518 10.1934 18.5195 9.95189 18.1757L7.40962 14.556C6.91287 13.8486 7.08364 12.8726 7.79082 12.3758C8.49812 11.8791 9.47402 12.0497 9.97089 12.757L11.597 15.0723L18.8088 9.80484C19.5068 9.29534 20.4858 9.44736 20.9955 10.1455C21.5052 10.8434 21.3526 11.8223 20.6547 12.3322Z" fill="white"/>
</svg>
