<svg width="38" height="30" viewBox="0 0 38 30" fill="none" xmlns="http://www.w3.org/2000/svg">
<path d="M8.65983 21.8126C6.66808 21.8126 5.05225 23.4279 5.05225 25.4197C5.05225 27.4125 6.66808 29.0278 8.65983 29.0278C10.6522 29.0278 12.2675 27.4125 12.2675 25.4197C12.2674 23.4279 10.6521 21.8126 8.65983 21.8126ZM8.65983 27.044C7.76326 27.044 7.0365 26.3168 7.0365 25.4197C7.0365 24.5236 7.76326 23.7969 8.65983 23.7969C9.5564 23.7969 10.2832 24.5236 10.2832 25.4197C10.2831 26.3168 9.55632 27.044 8.65983 27.044Z" fill="white"/>
<path d="M29.9699 21.8126C27.9781 21.8126 26.3628 23.4279 26.3628 25.4197C26.3628 27.4125 27.9781 29.0278 29.9699 29.0278C31.9621 29.0278 33.5774 27.4125 33.5774 25.4197C33.5774 23.4279 31.9621 21.8126 29.9699 21.8126ZM29.9699 27.044C29.0738 27.044 28.347 26.3168 28.347 25.4197C28.347 24.5236 29.0738 23.7969 29.9699 23.7969C30.8663 23.7969 31.5931 24.5236 31.5931 25.4197C31.5931 26.3168 30.8663 27.044 29.9699 27.044Z" fill="white"/>
<path d="M14.8533 5.06H6.717C6.45271 5.06 6.20066 5.17741 6.03196 5.38144L0.207221 12.3702C0.0731803 12.5299 0 12.7322 0 12.9416V19.0717V22.2772C0 22.7706 0.399968 23.17 0.892859 23.17H3.6274C4.49027 21.2477 6.41961 19.9025 8.66021 19.9025C10.9013 19.9025 12.8301 21.2477 13.693 23.17H15.7468V5.95286C15.7466 5.45937 15.3461 5.06 14.8533 5.06ZM3.26053 13.0334C3.26053 12.8219 3.33312 12.6169 3.46664 12.453L7.18525 7.8741C7.36041 7.65834 7.62315 7.53343 7.90021 7.53343H11.5431C12.0514 7.53343 12.4637 7.94565 12.4637 8.45457V13.6507C12.4637 14.1591 12.0514 14.5714 11.5431 14.5714H4.18107C3.67267 14.5714 3.26046 14.1591 3.26046 13.6507L3.26053 13.0334Z" fill="white"/>
<path d="M18.0742 20.6588C17.7966 20.6588 17.5723 20.8836 17.5723 21.1612V22.6681C17.5723 22.9453 17.7966 23.17 18.0742 23.17H24.937C25.4106 22.1155 26.2041 21.2386 27.1947 20.6588H18.0742Z" fill="white"/>
<path d="M37.435 20.6588H32.7451C33.7362 21.2387 34.5296 22.1155 35.0028 23.17H37.4351C37.7128 23.17 37.9376 22.9453 37.9376 22.6681V21.1612C37.9375 20.8836 37.7127 20.6588 37.435 20.6588Z" fill="white"/>
<path d="M36.9291 0H18.7064C18.1153 0 17.6357 0.479457 17.6357 1.07113V17.8969C17.6357 18.4886 18.1153 18.968 18.7064 18.968H36.9291C37.5207 18.968 38.0002 18.4886 38.0002 17.8969V1.07113C38.0002 0.479457 37.5207 0 36.9291 0ZM34.0124 5.46581H21.6241C21.3464 5.46581 21.1215 5.24048 21.1215 4.96387V3.95946C21.1215 3.6818 21.3464 3.45699 21.6241 3.45699H34.0124C34.2896 3.45699 34.5143 3.6818 34.5143 3.95946V4.96387C34.5143 5.24048 34.2896 5.46581 34.0124 5.46581ZM21.6241 8.47964H34.0124C34.2896 8.47964 34.5143 8.70386 34.5143 8.98158V9.98652C34.5143 10.2631 34.2896 10.4885 34.0124 10.4885H21.6241C21.3464 10.4885 21.1215 10.2631 21.1215 9.98652V8.98158C21.1215 8.70386 21.3464 8.47964 21.6241 8.47964ZM21.6241 13.5022H34.0124C34.2896 13.5022 34.5143 13.7265 34.5143 14.0042V15.0086C34.5143 15.2852 34.2896 15.511 34.0124 15.511H21.6241C21.3464 15.511 21.1215 15.2851 21.1215 15.0086V14.0042C21.1215 13.7265 21.3464 13.5022 21.6241 13.5022Z" fill="white"/>
</svg>
