<svg width="27" height="38" viewBox="0 0 27 38" fill="none" xmlns="http://www.w3.org/2000/svg">
<path d="M19.593 28.3951V34.2582L22.3617 35.4274V26.8586C21.492 27.4638 20.5644 27.9785 19.593 28.3951ZM4.63832 26.8586V35.3689L7.40703 34.1997V28.3951C6.43561 27.9785 5.50802 27.4638 4.63832 26.8586ZM13.5 29.6424C12.1926 29.6431 10.8902 29.478 9.62315 29.151V38L13.5 36.363L17.3768 37.9999V29.151C16.1097 29.478 14.8074 29.6431 13.5 29.6424ZM13.5 0C6.05607 0 0 6.14441 0 13.697C0 21.2495 6.05607 27.3939 13.5 27.3939C20.9439 27.3939 27 21.2495 27 13.6969C27 6.14434 20.9439 0 13.5 0ZM13.5 24.4996C7.59861 24.4996 2.79746 19.6284 2.79746 13.6409C2.79746 7.65342 7.59861 2.78223 13.5 2.78223C19.4013 2.78223 24.2025 7.65342 24.2025 13.6409C24.2025 19.6284 19.4014 24.4996 13.5 24.4996ZM13.5 5.03069C8.82061 5.03069 5.01358 8.89317 5.01358 13.6409C5.01358 18.3887 8.82061 22.251 13.5 22.251C18.1793 22.251 21.9863 18.3885 21.9863 13.6409C21.9863 8.89317 18.1794 5.03069 13.5 5.03069ZM16.9879 18.666L13.5 16.8055L10.0121 18.666L10.6782 14.7256L7.85647 11.9349L11.7561 11.36L13.5 7.77477L15.2439 11.36L19.1435 11.9349L16.3218 14.7256L16.9879 18.666Z" fill="white"/>
</svg>
