<svg width="66" height="78" viewBox="0 0 66 78" fill="none" xmlns="http://www.w3.org/2000/svg">
<path fill-rule="evenodd" clip-rule="evenodd" d="M32.495 1.0957e-06H32.7956C36.5914 -3.89043e-05 39.653 -7.92891e-05 42.1227 0.213201C44.6683 0.433041 46.8924 0.898201 48.9125 2.00964C51.3058 3.32616 53.2931 5.21972 54.6746 7.5C55.8413 9.425 56.3291 11.5442 56.56 13.9696C56.7837 16.3228 56.7837 19.2399 56.7837 22.8569V36.484C58.8575 36.9016 60.734 37.718 62.2491 39.3676C64.1193 41.4044 64.7292 43.946 64.982 46.7464C64.9878 46.81 64.9937 46.8736 64.9992 46.9372C65.1474 48.574 65.2876 50.1244 65.1965 51.42C65.0919 52.9048 64.6692 54.42 63.4048 55.7332C62.0988 57.0892 60.4586 57.594 58.8882 57.808C58.2484 57.8948 57.5414 57.9428 56.7837 57.9688V75C56.7837 76.6568 55.374 78 53.6352 78C51.8964 78 50.4867 76.6568 50.4867 75V58H14.8039V75C14.8039 76.6568 13.3943 78 11.6554 78C9.91656 78 8.50696 76.6568 8.50696 75V57.9688C7.74914 57.9428 7.04224 57.8948 6.40259 57.808C4.83187 57.594 3.19189 57.0892 1.8859 55.7332C0.621384 54.42 0.198646 52.9048 0.0943259 51.42C0.0032717 50.1244 0.143484 48.5736 0.291421 46.9368C0.297172 46.8736 0.302925 46.81 0.308676 46.7464C0.561268 43.946 1.17128 41.4044 3.04173 39.3676C4.5567 37.718 6.43307 36.9016 8.50696 36.484V22.8568C8.50692 19.2399 8.50687 16.3228 8.73071 13.9696C8.96139 11.5442 9.44961 9.425 10.616 7.5C11.9977 5.21972 13.985 3.32616 16.3782 2.00964C18.3985 0.898201 20.6225 0.433041 23.168 0.213201C25.6376 -7.92891e-05 28.6992 -3.89043e-05 32.495 1.0957e-06ZM17.7157 36C17.5619 36 17.4091 36 17.2574 36H14.8039V23C14.8039 19.2063 14.8069 16.5616 15.002 14.5112C15.1931 12.502 15.5485 11.3596 16.0694 10.5C16.8984 9.13184 18.0907 7.99568 19.5267 7.20576C20.4288 6.70948 21.6277 6.37084 23.7364 6.18872C25.8882 6.00288 28.6639 6 32.6453 6C36.6267 6 39.4024 6.00288 41.5543 6.18872C43.6629 6.37084 44.8619 6.70948 45.764 7.20576C47.1997 7.99568 48.3924 9.13184 49.2215 10.5C49.742 11.3596 50.0976 12.502 50.2886 14.5112C50.4838 16.5616 50.4867 19.2063 50.4867 23V36H48.0334C47.8815 36 47.7287 36 47.575 36H17.7157ZM17.9524 42C14.388 42 12.0758 42.0084 10.3695 42.258C8.80153 42.4876 8.19958 42.8624 7.78066 43.3188C7.25084 43.8956 6.79934 44.8564 6.58248 47.26C6.41137 49.1572 6.32245 50.2392 6.37724 51.0192C6.40159 51.366 6.44965 51.5296 6.47446 51.5948C6.4905 51.6368 6.49927 51.6492 6.52526 51.676L6.53025 51.6812C6.5303 51.6812 6.53013 51.6812 6.53025 51.6812L6.54314 51.6892C6.55061 51.6932 6.56371 51.6996 6.58407 51.7084C6.67173 51.7452 6.87524 51.8112 7.29307 51.8684C8.2084 51.9928 9.49306 52 11.6554 52H53.6352C55.7976 52 57.0822 51.9928 57.9978 51.8684C58.4155 51.8112 58.6191 51.7452 58.7068 51.7084C58.727 51.6996 58.74 51.6932 58.7475 51.6892L58.7589 51.6828C58.7589 51.6824 58.7589 51.6824 58.7589 51.6828L58.7656 51.676C58.7916 51.6492 58.8 51.6368 58.8164 51.5948C58.8412 51.5296 58.889 51.366 58.9134 51.0192C58.9683 50.2392 58.8793 49.1572 58.7081 47.26C58.4915 44.8564 58.0398 43.8956 57.51 43.3188C57.091 42.8624 56.489 42.4876 54.9211 42.258C53.215 42.0084 50.9028 42 47.3383 42H17.9524Z" fill="white"/>
</svg>
