<svg width="64" height="12" viewBox="0 0 64 12" fill="none" xmlns="http://www.w3.org/2000/svg">
<path d="M4.57658 2.70419C5.2099 1.56807 5.52655 1 5.99999 1C6.47344 1 6.79009 1.56806 7.42339 2.70419L7.58724 2.99812C7.76724 3.32097 7.85719 3.4824 7.99754 3.58891C8.13784 3.69542 8.31254 3.73495 8.66204 3.81403L8.98024 3.88602C10.21 4.16428 10.825 4.30341 10.9713 4.77387C11.1176 5.24431 10.6984 5.73456 9.85994 6.71496L9.64304 6.96861C9.40479 7.24721 9.28564 7.38651 9.23204 7.55886C9.17849 7.73121 9.19649 7.91706 9.23249 8.28881L9.26529 8.62721C9.39204 9.93531 9.45544 10.5894 9.07244 10.8801C8.68939 11.1709 8.11364 10.9058 6.96214 10.3756L6.66424 10.2384C6.33704 10.0878 6.17344 10.0124 5.99999 10.0124C5.82654 10.0124 5.66295 10.0878 5.33575 10.2384L5.03785 10.3756C3.88634 10.9058 3.31059 11.1709 2.92757 10.8801C2.54456 10.5894 2.60794 9.93531 2.7347 8.62721L2.76749 8.28881C2.80351 7.91706 2.82152 7.73121 2.76793 7.55886C2.71434 7.38651 2.59521 7.24721 2.35696 6.96861L2.14005 6.71496C1.30163 5.73456 0.882411 5.24431 1.02871 4.77387C1.17501 4.30341 1.78993 4.16428 3.01977 3.88602L3.33794 3.81403C3.68742 3.73495 3.86216 3.69542 4.00247 3.58891C4.14277 3.4824 4.23276 3.32097 4.41273 2.99812L4.57658 2.70419Z" stroke="#1B263B"/>
<path d="M17.5766 2.70419C18.2099 1.56807 18.5265 1 19 1C19.4734 1 19.7901 1.56806 20.4234 2.70419L20.5872 2.99812C20.7672 3.32097 20.8572 3.4824 20.9975 3.58891C21.1378 3.69542 21.3125 3.73495 21.662 3.81403L21.9802 3.88602C23.21 4.16428 23.825 4.30341 23.9713 4.77387C24.1176 5.24431 23.6984 5.73456 22.8599 6.71496L22.643 6.96861C22.4048 7.24721 22.2856 7.38651 22.232 7.55886C22.1785 7.73121 22.1965 7.91706 22.2325 8.28881L22.2653 8.62721C22.392 9.93531 22.4554 10.5894 22.0724 10.8801C21.6894 11.1709 21.1136 10.9058 19.9621 10.3756L19.6642 10.2384C19.337 10.0878 19.1734 10.0124 19 10.0124C18.8265 10.0124 18.6629 10.0878 18.3357 10.2384L18.0378 10.3756C16.8863 10.9058 16.3106 11.1709 15.9276 10.8801C15.5446 10.5894 15.6079 9.93531 15.7347 8.62721L15.7675 8.28881C15.8035 7.91706 15.8215 7.73121 15.7679 7.55886C15.7143 7.38651 15.5952 7.24721 15.357 6.96861L15.14 6.71496C14.3016 5.73456 13.8824 5.24431 14.0287 4.77387C14.175 4.30341 14.7899 4.16428 16.0198 3.88602L16.3379 3.81403C16.6874 3.73495 16.8622 3.69542 17.0025 3.58891C17.1428 3.4824 17.2328 3.32097 17.4127 2.99812L17.5766 2.70419Z" stroke="#1B263B"/>
<path d="M30.5766 2.70419C31.2099 1.56807 31.5265 1 32 1C32.4734 1 32.7901 1.56806 33.4234 2.70419L33.5872 2.99812C33.7672 3.32097 33.8572 3.4824 33.9975 3.58891C34.1378 3.69542 34.3125 3.73495 34.662 3.81403L34.9802 3.88602C36.21 4.16428 36.825 4.30341 36.9713 4.77387C37.1176 5.24431 36.6984 5.73456 35.8599 6.71496L35.643 6.96861C35.4048 7.24721 35.2856 7.38651 35.232 7.55886C35.1785 7.73121 35.1965 7.91706 35.2325 8.28881L35.2653 8.62721C35.392 9.93531 35.4554 10.5894 35.0724 10.8801C34.6894 11.1709 34.1136 10.9058 32.9621 10.3756L32.6642 10.2384C32.337 10.0878 32.1734 10.0124 32 10.0124C31.8265 10.0124 31.6629 10.0878 31.3357 10.2384L31.0378 10.3756C29.8863 10.9058 29.3106 11.1709 28.9276 10.8801C28.5446 10.5894 28.6079 9.93531 28.7347 8.62721L28.7675 8.28881C28.8035 7.91706 28.8215 7.73121 28.7679 7.55886C28.7143 7.38651 28.5952 7.24721 28.357 6.96861L28.14 6.71496C27.3016 5.73456 26.8824 5.24431 27.0287 4.77387C27.175 4.30341 27.7899 4.16428 29.0198 3.88602L29.3379 3.81403C29.6874 3.73495 29.8622 3.69542 30.0025 3.58891C30.1428 3.4824 30.2328 3.32097 30.4127 2.99812L30.5766 2.70419Z" stroke="#1B263B"/>
<path d="M43.5766 2.70419C44.2099 1.56807 44.5265 1 45 1C45.4734 1 45.7901 1.56806 46.4234 2.70419L46.5872 2.99812C46.7672 3.32097 46.8572 3.4824 46.9975 3.58891C47.1378 3.69542 47.3125 3.73495 47.662 3.81403L47.9802 3.88602C49.21 4.16428 49.825 4.30341 49.9713 4.77387C50.1176 5.24431 49.6984 5.73456 48.8599 6.71496L48.643 6.96861C48.4048 7.24721 48.2856 7.38651 48.232 7.55886C48.1785 7.73121 48.1965 7.91706 48.2325 8.28881L48.2653 8.62721C48.392 9.93531 48.4554 10.5894 48.0724 10.8801C47.6894 11.1709 47.1136 10.9058 45.9621 10.3756L45.6642 10.2384C45.337 10.0878 45.1734 10.0124 45 10.0124C44.8265 10.0124 44.6629 10.0878 44.3357 10.2384L44.0378 10.3756C42.8863 10.9058 42.3106 11.1709 41.9276 10.8801C41.5446 10.5894 41.6079 9.93531 41.7347 8.62721L41.7675 8.28881C41.8035 7.91706 41.8215 7.73121 41.7679 7.55886C41.7143 7.38651 41.5952 7.24721 41.357 6.96861L41.14 6.71496C40.3016 5.73456 39.8824 5.24431 40.0287 4.77387C40.175 4.30341 40.7899 4.16428 42.0198 3.88602L42.3379 3.81403C42.6874 3.73495 42.8622 3.69542 43.0025 3.58891C43.1428 3.4824 43.2328 3.32097 43.4127 2.99812L43.5766 2.70419Z" stroke="#1B263B"/>
<path d="M56.5766 2.70419C57.2099 1.56807 57.5265 1 58 1C58.4734 1 58.7901 1.56806 59.4234 2.70419L59.5872 2.99812C59.7672 3.32097 59.8572 3.4824 59.9975 3.58891C60.1378 3.69542 60.3125 3.73495 60.662 3.81403L60.9802 3.88602C62.21 4.16428 62.825 4.30341 62.9713 4.77387C63.1176 5.24431 62.6984 5.73456 61.8599 6.71496L61.643 6.96861C61.4048 7.24721 61.2856 7.38651 61.232 7.55886C61.1785 7.73121 61.1965 7.91706 61.2325 8.28881L61.2653 8.62721C61.392 9.93531 61.4554 10.5894 61.0724 10.8801C60.6894 11.1709 60.1136 10.9058 58.9621 10.3756L58.6642 10.2384C58.337 10.0878 58.1734 10.0124 58 10.0124C57.8265 10.0124 57.6629 10.0878 57.3357 10.2384L57.0378 10.3756C55.8863 10.9058 55.3106 11.1709 54.9276 10.8801C54.5446 10.5894 54.6079 9.93531 54.7347 8.62721L54.7675 8.28881C54.8035 7.91706 54.8215 7.73121 54.7679 7.55886C54.7143 7.38651 54.5952 7.24721 54.357 6.96861L54.14 6.71496C53.3016 5.73456 52.8824 5.24431 53.0287 4.77387C53.175 4.30341 53.7899 4.16428 55.0198 3.88602L55.3379 3.81403C55.6874 3.73495 55.8622 3.69542 56.0025 3.58891C56.1428 3.4824 56.2328 3.32097 56.4127 2.99812L56.5766 2.70419Z" stroke="#1B263B"/>
</svg>
