<svg width="9" height="13" viewBox="0 0 9 13" fill="none" xmlns="http://www.w3.org/2000/svg">
<path d="M7.02 0.5H1.98C1.18296 0.5 0.5 1.12436 0.5 1.93902V11.061C0.5 11.8756 1.18296 12.5 1.98 12.5H7.02C7.81704 12.5 8.5 11.8756 8.5 11.061V1.93902C8.5 1.12436 7.81704 0.5 7.02 0.5Z" stroke="#1B263B"/>
<path d="M4.48997 10.9267C4.73146 10.9267 4.92721 10.731 4.92721 10.4895C4.92721 10.248 4.73146 10.0523 4.48997 10.0523C4.24848 10.0523 4.05273 10.248 4.05273 10.4895C4.05273 10.731 4.24848 10.9267 4.48997 10.9267Z" fill="#1B263B"/>
<path d="M4.48997 10.9267C4.73146 10.9267 4.92721 10.731 4.92721 10.4895C4.92721 10.248 4.73146 10.0523 4.48997 10.0523C4.24848 10.0523 4.05273 10.248 4.05273 10.4895C4.05273 10.731 4.24848 10.9267 4.48997 10.9267Z" stroke="#1B263B"/>
</svg>
