<svg width="9" height="9" viewBox="0 0 9 9" fill="none" xmlns="http://www.w3.org/2000/svg">
<path fill-rule="evenodd" clip-rule="evenodd" d="M4.05247 1.02942e-07H4.94753C5.57123 -4.39706e-06 6.06726 -4.35859e-06 6.46722 0.0332101C6.87685 0.0672256 7.22587 0.138398 7.54461 0.303984C8.03777 0.560147 8.43984 0.962231 8.69602 1.45537C8.86162 1.77414 8.93277 2.12315 8.96679 2.53278C9 2.93275 9 3.42877 9 4.05247V4.94753C9 5.57123 9 6.06726 8.96679 6.46722C8.93277 6.87685 8.86162 7.22587 8.69602 7.54461C8.43984 8.03777 8.03777 8.43984 7.54461 8.69602C7.22587 8.86162 6.87685 8.93277 6.46722 8.96679C6.06726 9 5.57123 9 4.94753 9H4.05247C3.42877 9 2.93275 9 2.53278 8.96679C2.12315 8.93277 1.77414 8.86162 1.45537 8.69602C0.962231 8.43984 0.560147 8.03777 0.303984 7.54461C0.138398 7.22587 0.0672256 6.87685 0.0332101 6.46722C-4.35859e-06 6.06726 -4.39706e-06 5.57123 1.02942e-07 4.94753V4.05247C-4.39706e-06 3.42877 -4.35859e-06 2.93274 0.0332101 2.53278C0.0672256 2.12315 0.138398 1.77414 0.303984 1.45537C0.560147 0.962231 0.962231 0.560147 1.45537 0.303984C1.77414 0.138398 2.12315 0.0672256 2.53278 0.0332101C2.93274 -4.35859e-06 3.42877 -4.39706e-06 4.05247 1.02942e-07ZM2.60726 0.930123C2.2543 0.959432 2.03914 1.01492 1.87024 1.10266C1.54149 1.27343 1.27343 1.54149 1.10266 1.87024C1.01492 2.03914 0.959432 2.2543 0.930123 2.60726C0.90036 2.96561 0.9 3.42427 0.9 4.0725V4.9275C0.9 5.57572 0.90036 6.03437 0.930123 6.39275C0.959432 6.74573 1.01492 6.96087 1.10266 7.12976C1.27343 7.45853 1.54149 7.72659 1.87024 7.89736C2.03914 7.98507 2.2543 8.04056 2.60726 8.06989C2.96561 8.09964 3.42427 8.1 4.0725 8.1H4.9275C5.57572 8.1 6.03437 8.09964 6.39275 8.06989C6.74573 8.04056 6.96087 7.98507 7.12976 7.89736C7.45853 7.72659 7.72659 7.45853 7.89736 7.12976C7.98507 6.96087 8.04056 6.74573 8.06989 6.39275C8.09964 6.03437 8.1 5.57572 8.1 4.9275V4.0725C8.1 3.42427 8.09964 2.96561 8.06989 2.60726C8.04056 2.2543 7.98507 2.03914 7.89736 1.87024C7.72659 1.54149 7.45853 1.27343 7.12976 1.10266C6.96087 1.01492 6.74573 0.959432 6.39275 0.930123C6.03437 0.90036 5.57572 0.9 4.9275 0.9H4.0725C3.42427 0.9 2.96561 0.90036 2.60726 0.930123ZM4.42278 2.14081C4.67131 2.14081 4.87278 2.34228 4.87278 2.59081V4.82602L6.45989 5.42938C6.69222 5.51767 6.80895 5.7776 6.72061 6.00988C6.63232 6.24222 6.37241 6.35895 6.14011 6.27061L4.26289 5.55705C4.08825 5.49063 3.97278 5.32323 3.97278 5.13639V2.59081C3.97278 2.34228 4.17424 2.14081 4.42278 2.14081Z" fill="#1B263B"/>
</svg>
