<svg width="29" height="29" viewBox="0 0 29 29" fill="none" xmlns="http://www.w3.org/2000/svg">
<path d="M27.7391 13.8696C27.7391 14.3165 27.7179 14.7586 27.6766 15.1947C26.9622 14.48 26.1257 13.8872 25.2011 13.4503C24.9806 7.3821 19.9917 2.53035 13.8696 2.53035C7.60709 2.53035 2.53035 7.60709 2.53035 13.8696C2.53035 19.9917 7.3821 24.9806 13.4503 25.2011C13.8872 26.1257 14.48 26.9622 15.1947 27.6766C14.7586 27.7179 14.3165 27.7391 13.8696 27.7391C6.20962 27.7391 0 21.5295 0 13.8696C0 6.20962 6.20962 0 13.8696 0C21.5295 0 27.7391 6.20962 27.7391 13.8696Z" fill="white"/>
<path d="M15.1306 13.7198L16.193 14.3332C15.4896 14.8533 14.8661 15.4755 14.3446 16.1778L13.2613 15.5523C13.0422 15.4258 12.8756 15.2436 12.7686 15.034C12.6089 14.7867 12.6089 14.458 12.6089 14.458V6.30433C12.6089 5.60796 13.1734 5.04346 13.8698 5.04346C14.5661 5.04346 15.1306 5.60797 15.1306 6.30433V13.7198Z" fill="white"/>
<path d="M18.0216 21.0655C18.514 20.5731 19.3124 20.5731 19.8047 21.0655L20.6131 21.8738L23.0076 19.4793C23.5001 18.987 24.2984 18.987 24.7907 19.4793C25.2832 19.9718 25.2832 20.7701 24.7907 21.2626L21.5879 24.4654C21.4789 24.5744 21.3551 24.6592 21.2228 24.7199C20.7399 25.0023 20.1094 24.9365 19.6953 24.5223L18.0216 22.8486C17.5293 22.3562 17.5293 21.5579 18.0216 21.0655Z" fill="white"/>
<path fill-rule="evenodd" clip-rule="evenodd" d="M21.4348 29C25.613 29 29.0001 25.6129 29.0001 21.4348C29.0001 17.2566 25.613 13.8696 21.4348 13.8696C17.2567 13.8696 13.8696 17.2566 13.8696 21.4348C13.8696 25.6129 17.2567 29 21.4348 29ZM21.4348 26.5011C18.6369 26.5011 16.3685 24.2328 16.3685 21.4348C16.3685 18.6368 18.6369 16.3685 21.4348 16.3685C24.2328 16.3685 26.5011 18.6368 26.5011 21.4348C26.5011 24.2328 24.2328 26.5011 21.4348 26.5011Z" fill="white"/>
</svg>
