<svg width="20" height="11" viewBox="0 0 20 11" fill="none" xmlns="http://www.w3.org/2000/svg">
<path d="M0.5 5.02276C0.5 4.80479 0.667947 4.40424 1.15323 3.8781C1.61788 3.37434 2.30752 2.82795 3.17923 2.32279C4.92204 1.31282 7.33642 0.5 10 0.5C12.664 0.5 15.0787 1.30046 16.821 2.30356C17.6926 2.80533 18.3816 3.34966 18.8457 3.85492C19.3286 4.38057 19.5 4.78871 19.5 5.02276C19.5 5.25681 19.3286 5.66494 18.8457 6.1906C18.3816 6.69586 17.6926 7.24018 16.821 7.74195C15.0787 8.74506 12.664 9.54552 10 9.54552C7.33578 9.54552 4.9214 8.73269 3.17878 7.72274C2.30716 7.21758 1.61763 6.6712 1.15309 6.16745C0.66792 5.64134 0.5 5.24077 0.5 5.02276ZM3.0613 5.06199C3.0613 5.90421 3.63857 7.00423 4.74972 7.87312C5.8828 8.75915 7.60149 9.43694 9.98745 9.43694C12.3709 9.43694 14.0889 8.77002 15.2224 7.88867C16.3359 7.0228 16.9111 5.92213 16.9111 5.06199C16.9111 4.20174 16.3355 3.10108 15.2219 2.23528C14.0883 1.35397 12.3703 0.687036 9.98745 0.687036C7.60149 0.687036 5.8828 1.36483 4.74972 2.25086C3.63857 3.11975 3.0613 4.21977 3.0613 5.06199Z" stroke="#1B263B" stroke-opacity="0.2"/>
<path d="M11.839 5.01521C11.839 6.12259 10.966 6.99938 9.91463 6.99938C8.86323 6.99938 7.99023 6.12259 7.99023 5.01521C7.99023 3.90783 8.86323 3.03104 9.91463 3.03104C10.966 3.03104 11.839 3.90783 11.839 5.01521Z" stroke="#1B263B" stroke-opacity="0.2"/>
</svg>
